<svg width="94" height="271" viewBox="0 0 94 271" fill="none" xmlns="http://www.w3.org/2000/svg">
<path d="M65.625 157.875C65.625 159.125 65.1667 160.208 64.25 161.125C63.4167 162.042 62.2917 162.5 60.875 162.5C59.5417 162.5 58.4167 162.083 57.5 161.25C56.6667 160.417 56.25 159.292 56.25 157.875V154.75C56.25 149.25 55.625 145.208 54.375 142.625C53.2083 140.042 51.5417 138 49.375 136.5C47.2917 134.917 44.2917 134.125 40.375 134.125H19.25V157.875C19.25 159.125 18.7917 160.208 17.875 161.125C16.9583 162.042 15.8333 162.5 14.5 162.5C13.25 162.5 12.1667 162.042 11.25 161.125C10.3333 160.208 9.875 159.125 9.875 157.875V95.25C9.875 94 10.3333 92.9167 11.25 92C12.1667 91 13.25 90.5 14.5 90.5H38.375C47.7083 90.5 54.7917 92.5 59.625 96.5C64.125 100.25 66.3333 105.167 66.25 111.25C66.25 115.167 65.125 118.875 62.875 122.375C60.7083 125.792 57.3333 128.25 52.75 129.75C57.6667 131 61.25 134.583 63.5 140.5C65 144.333 65.7083 148.583 65.625 153.25V157.875ZM37.75 125.25C43.5 125.25 48.125 124.167 51.625 122C55.125 119.75 56.875 116.417 56.875 112C56.875 107.917 55.5 104.833 52.75 102.75C49.5 100.417 44.3333 99.25 37.25 99.25H19.25V125.25H37.75Z" fill="white"/>
<path d="M83.25 149.25C83.75 149 84.5 148.875 85.5 148.875C86.5 148.875 87.375 149.292 88.125 150.125C88.875 150.875 89.25 151.75 89.25 152.75C89.25 154.583 88.4583 155.917 86.875 156.75C83.7083 158.583 80.2917 160.083 76.625 161.25C73.0417 162.417 68.6667 163 63.5 163C58.4167 163 53.6667 162.167 49.25 160.5C44.9167 158.833 41.1667 156.417 38 153.25C31.1667 146.583 27.75 137.583 27.75 126.25C27.75 115 31.1667 106 38 99.25C44.5833 92.75 53.125 89.5 63.625 89.5C68.7083 89.5 73.0417 90.125 76.625 91.375C80.2917 92.625 83.0833 93.7917 85 94.875C86.9167 95.875 88.0833 96.7083 88.5 97.375C89 97.9583 89.25 98.75 89.25 99.75C89.25 100.75 88.875 101.667 88.125 102.5C87.375 103.25 86.5 103.625 85.5 103.625C84.5833 103.625 83.8333 103.5 83.25 103.25C80.5 101.75 77.6667 100.583 74.75 99.75C71.9167 98.8333 68.375 98.375 64.125 98.375C59.875 98.375 56 99.125 52.5 100.625C49.0833 102.042 46.2083 104 43.875 106.5C39.2917 111.5 37.0417 118.083 37.125 126.25C37.125 134.417 39.375 141 43.875 146C48.875 151.417 55.75 154.125 64.5 154.125C68.5 154.125 71.9167 153.708 74.75 152.875C77.6667 151.958 80.5 150.75 83.25 149.25Z" fill="white"/>
</svg>
